<?xml version="1.0" encoding="UTF-8" standalone="no"?>
<!-- Created with Inkscape (http://www.inkscape.org/) -->

<svg
   xmlns:dc="http://purl.org/dc/elements/1.1/"
   xmlns:cc="http://creativecommons.org/ns#"
   xmlns:rdf="http://www.w3.org/1999/02/22-rdf-syntax-ns#"
   xmlns:svg="http://www.w3.org/2000/svg"
   xmlns="http://www.w3.org/2000/svg"
   xmlns:sodipodi="http://sodipodi.sourceforge.net/DTD/sodipodi-0.dtd"
   xmlns:inkscape="http://www.inkscape.org/namespaces/inkscape"
   width="744.09448819"
   height="1052.3622047"
   id="svg4087"
   version="1.1"
   inkscape:version="0.48+devel r9772"
   sodipodi:docname="tangram-14.svg">
  <defs
     id="defs4089" />
  <sodipodi:namedview
     id="base"
     pagecolor="#ffffff"
     bordercolor="#666666"
     borderopacity="1.0"
     inkscape:pageopacity="0.0"
     inkscape:pageshadow="2"
     inkscape:zoom="0.66136926"
     inkscape:cx="557.54396"
     inkscape:cy="526.18109"
     inkscape:document-units="px"
     inkscape:current-layer="layer1"
     showgrid="false"
     showguides="false"
     inkscape:guide-bbox="true"
     inkscape:window-width="1440"
     inkscape:window-height="851"
     inkscape:window-x="0"
     inkscape:window-y="1"
     inkscape:window-maximized="1">
    <sodipodi:guide
       orientation="0,1"
       position="452.65938,762.62238"
       id="guide4160" />
    <sodipodi:guide
       orientation="0,1"
       position="510.30494,266.49258"
       id="guide4162" />
    <sodipodi:guide
       orientation="1,0"
       position="628.43108,517.86501"
       id="guide4164" />
    <sodipodi:guide
       orientation="1,0"
       position="131.35627,502.74486"
       id="guide4166" />
    <sodipodi:guide
       orientation="1,0"
       position="380.83868,481.95466"
       id="guide4678" />
    <sodipodi:guide
       orientation="0,1"
       position="437.53923,515.02998"
       id="guide4680" />
    <sodipodi:guide
       orientation="1,0"
       position="257.04249,604.80585"
       id="guide4688" />
    <sodipodi:guide
       orientation="0,1"
       position="558.5004,640.7162"
       id="guide4690" />
    <sodipodi:guide
       orientation="1,0"
       position="507.46991,679.46157"
       id="guide4694" />
    <sodipodi:guide
       orientation="0,1"
       position="697.41675,393.1238"
       id="guide4700" />
  </sodipodi:namedview>
  <metadata
     id="metadata4092">
    <rdf:RDF>
      <cc:Work
         rdf:about="">
        <dc:format>image/svg+xml</dc:format>
        <dc:type
           rdf:resource="http://purl.org/dc/dcmitype/StillImage" />
        <dc:title />
      </cc:Work>
    </rdf:RDF>
  </metadata>
  <g
     inkscape:label="Layer 1"
     inkscape:groupmode="layer"
     id="layer1">
    <rect
       style="color:#000000;fill:#eef4d7;stroke:#000000;stroke-width:1px;stroke-linecap:butt;stroke-linejoin:miter;stroke-miterlimit:4;stroke-opacity:1;stroke-dasharray:none;stroke-dashoffset:0;marker:none;visibility:visible;display:inline;overflow:visible;enable-background:accumulate"
       id="rect4723"
       width="734.83911"
       height="1043.29"
       x="4.6276855"
       y="4.5360441" />
    <g
       id="g4124"
       transform="translate(-55.020394,57.456556)">
      <path
         inkscape:connector-curvature="0"
         id="path4682"
         d="m 538.61864,677.19423 -213.37807,0.81139 0.40571,-213.7837 z"
         style="color:#000000;fill:#f8b334;fill-opacity:1;stroke:#000000;stroke-width:3.03537893;stroke-linecap:butt;stroke-linejoin:miter;stroke-miterlimit:4;stroke-opacity:1;stroke-dasharray:none;stroke-dashoffset:0;marker:none;visibility:visible;display:inline;overflow:visible;enable-background:accumulate" />
      <path
         inkscape:connector-curvature="0"
         id="path4684"
         d="M 478.29978,609.42183 327.41875,457.96709 478.29979,307.65973 z"
         style="color:#000000;fill:#91cdc3;fill-opacity:1;stroke:#000000;stroke-width:3.03537893;stroke-linecap:butt;stroke-linejoin:miter;stroke-miterlimit:4;stroke-opacity:1;stroke-dasharray:none;stroke-dashoffset:0;marker:none;visibility:visible;display:inline;overflow:visible;enable-background:accumulate" />
      <path
         inkscape:connector-curvature="0"
         id="path4686"
         d="m 537.28516,681.78715 10e-6,150.30739 -148.5863,-150.30734 z"
         style="color:#000000;fill:#feec02;fill-opacity:1;stroke:#000000;stroke-width:3.03537893;stroke-linecap:butt;stroke-linejoin:miter;stroke-miterlimit:4;stroke-opacity:1;stroke-dasharray:none;stroke-dashoffset:0;marker:none;visibility:visible;display:inline;overflow:visible;enable-background:accumulate" />
      <path
         inkscape:connector-curvature="0"
         id="path4692"
         d="m 220.20241,835.44262 151.45474,-3e-5 -75.15368,-74.00629 z"
         style="color:#000000;fill:#36b4e6;fill-opacity:1;stroke:#000000;stroke-width:3.03537893;stroke-linecap:butt;stroke-linejoin:miter;stroke-miterlimit:4;stroke-opacity:1;stroke-dasharray:none;stroke-dashoffset:0;marker:none;visibility:visible;display:inline;overflow:visible;enable-background:accumulate" />
      <path
         inkscape:connector-curvature="0"
         id="path4702"
         d="m 557.63181,266.70778 -74.0063,75.15368 74.0063,76.87475 76.30105,-76.87475 z"
         style="color:#000000;fill:#e6462c;fill-opacity:1;stroke:#000000;stroke-width:3.03537893;stroke-linecap:butt;stroke-linejoin:miter;stroke-miterlimit:4;stroke-opacity:1;stroke-dasharray:none;stroke-dashoffset:0;marker:none;visibility:visible;display:inline;overflow:visible;enable-background:accumulate" />
      <path
         inkscape:connector-curvature="0"
         id="path4704"
         d="m 482.6792,482.13333 108.31165,0.4056 -106.28333,106.28338 z"
         style="color:#000000;fill:#049633;fill-opacity:1;stroke:#000000;stroke-width:3.03537893;stroke-linecap:butt;stroke-linejoin:miter;stroke-miterlimit:4;stroke-opacity:1;stroke-dasharray:none;stroke-dashoffset:0;marker:none;visibility:visible;display:inline;overflow:visible;enable-background:accumulate" />
      <path
         inkscape:connector-curvature="0"
         id="path4706"
         d="m 304.65454,761.27581 76.30103,73.4326 150.88107,0 -76.87476,-73.4326 z"
         style="color:#000000;fill:#0260a0;fill-opacity:1;stroke:#000000;stroke-width:3.03537893;stroke-linecap:butt;stroke-linejoin:miter;stroke-miterlimit:4;stroke-opacity:1;stroke-dasharray:none;stroke-dashoffset:0;marker:none;visibility:visible;display:inline;overflow:visible;enable-background:accumulate" />
    </g>
    <g
       style="font-size:133.6053772px;font-style:normal;font-variant:normal;font-weight:bold;font-stretch:normal;text-align:start;line-height:125%;letter-spacing:0px;word-spacing:0px;writing-mode:lr-tb;text-anchor:start;fill:#000000;fill-opacity:1;stroke:none;font-family:Orator Std;-inkscape-font-specification:Orator Std Bold"
       id="text4719">
      <path
         d="m 125.83549,191.64755 8.95156,0 0,-81.09846 18.83836,0 0,-8.01632 -47.02909,0 0,8.01632 19.23917,0 0,81.09846"
         style=""
         id="path4726" />
      <path
         d="m 222.37999,164.12484 6.94748,29.25958 8.81796,-2.40489 -22.57931,-88.44676 -10.68843,0 -22.57931,88.44676 8.81795,2.40489 6.94748,-29.25958 24.31618,0 m -2.13768,-8.01632 -20.04081,0 9.8868,-41.68488 0.26721,0 9.8868,41.68488"
         style=""
         id="path4728" />
      <path
         d="m 267.08561,191.64755 8.95156,0 0,-54.6446 -0.40082,-20.17441 0.26721,-0.26721 26.45386,75.08622 11.22286,0 0,-89.11478 -8.95156,0 0,54.7782 0.40081,19.9072 -0.26721,0.26721 -26.45386,-74.95261 -11.22285,0 0,89.11478"
         style=""
         id="path4730" />
      <path
         d="m 393.95853,145.42009 -25.65224,0 0,8.01632 16.70067,0 0,26.85469 c -3.07292,2.5385 -7.88272,4.14176 -11.62366,4.14176 -8.81795,0 -17.76952,-6.27948 -17.76952,-36.87508 0,-10.55482 1.33607,-37.81032 16.16625,-37.81032 7.08108,0 11.75728,4.9434 14.9638,10.68843 l 7.88272,-4.8098 c -4.94339,-8.14992 -12.2917,-14.29577 -22.3121,-14.29577 -22.17847,0 -26.05304,29.25959 -26.05304,45.96025 0,17.76949 4.00818,45.55943 26.98828,45.55943 7.4819,0 14.96381,-3.07293 20.70884,-7.74911 l 0,-39.6808"
         style=""
         id="path4732" />
      <path
         d="m 441.06904,110.54909 10.95564,0 c 9.08515,0 14.69659,4.00817 14.69659,15.63183 0,12.02447 -4.8098,17.76951 -12.55891,17.76951 l -13.09332,0 0,-33.40134 m -8.95156,81.09846 8.95156,0 0,-39.68079 10.0204,0 20.04081,41.41766 8.01632,-3.87455 -18.43754,-38.21114 c 10.95563,-3.74095 15.36461,-14.16218 15.36461,-25.11781 0,-16.03263 -11.08925,-23.64815 -19.9072,-23.64815 l -24.04896,0 0,89.11478"
         style=""
         id="path4734" />
      <path
         d="m 542.82413,164.12484 6.94748,29.25958 8.81795,-2.40489 -22.5793,-88.44676 -10.68844,0 -22.5793,88.44676 8.81795,2.40489 6.94748,-29.25958 24.31618,0 m -2.13769,-8.01632 -20.0408,0 9.88679,-41.68488 0.26722,0 9.88679,41.68488"
         style=""
         id="path4736" />
      <path
         d="m 610.77709,140.34309 -12.82611,-37.81032 -11.08925,0 -2.67211,89.11478 9.35238,0 1.73687,-74.28459 0.26721,0 15.23101,44.7578 15.23102,-44.7578 0.26721,0 1.73687,74.28459 9.48598,0 -2.67211,-89.11478 -11.22285,0 -12.82612,37.81032"
         style=""
         id="path4738" />
    </g>
  </g>
</svg>
